<svg version="1.2" baseProfile="tiny-ps" xmlns="http://www.w3.org/2000/svg" viewBox="0 0 400 150" width="400" height="150">
	<title>switch-svg</title>
	<defs>
		<filter x="-50%" y="-50%" width="200%" height="200%" id="flt1"> <feGaussianBlur stdDeviation="7.372" /> </filter>
		<radialGradient id="grd1" gradientUnits="userSpaceOnUse"  cx="188.996" cy="102.215" r="216.774">
			<stop offset="0" stop-color="#343434"  />
			<stop offset="1" stop-color="#000000" stop-opacity="0" />
		</radialGradient>
		<linearGradient id="grd2" gradientUnits="userSpaceOnUse"  x1="11.978" y1="48.75" x2="396.555" y2="48.75">
			<stop offset="0" stop-color="#a0a0b4"  />
			<stop offset="1" stop-color="#a0a0b4" stop-opacity="0" />
		</linearGradient>
		<linearGradient id="grd3" gradientUnits="userSpaceOnUse"  x1="308.977" y1="67.89" x2="395.068" y2="67.89">
			<stop offset="0" stop-color="#a0a0b4"  />
			<stop offset="1" stop-color="#a0a0b4" stop-opacity="0" />
		</linearGradient>
		<linearGradient id="grd4" gradientUnits="userSpaceOnUse"  x1="74.935" y1="82.208" x2="367.485" y2="149.697">
			<stop offset="0" stop-color="#a0a0b4"  />
			<stop offset="1" stop-color="#a0a0b4" stop-opacity="0" />
		</linearGradient>
		<linearGradient id="grd5" gradientUnits="userSpaceOnUse"  x1="183.782" y1="83.951" x2="280.68" y2="83.951">
			<stop offset="0" stop-color="#b1b1c5"  />
			<stop offset="1" stop-color="#b1b1c5" stop-opacity="0" />
		</linearGradient>
	</defs>
	<style>
		tspan { white-space:pre }
		.shp0 { opacity: 0.761;filter: url(#flt1);fill: url(#grd1) } 
		.shp1 { fill: #ffffff } 
		.shp2 { fill: url(#grd2);stroke: #000000;stroke-width: 0.5 } 
		.shp3 { fill: url(#grd3);stroke: #000000;stroke-width: 0.635 } 
		.shp4 { fill: url(#grd4);stroke: #000000;stroke-linejoin:round;stroke-width: 1.13 } 
		.shp5 { fill: #000000;stroke: #3d3d3d;stroke-linejoin:round;stroke-width: 0.661 } 
		.shp6 { fill: url(#grd5);stroke: #3d3d3d;stroke-linejoin:round;stroke-width: 0.476 } 
		.shp7 { opacity: 0.533;fill: #27ff00;stroke: #3d3d3d;stroke-linejoin:round;stroke-width: 0.281 } 
	</style>
	<g id="layer1">
		<path id="path8470" class="shp0" d="M405 102.22C404.99 112.78 382.23 122.9 341.73 130.37C301.22 137.84 246.28 142.03 189 142.03C131.71 142.03 76.77 137.84 36.26 130.37C-4.24 122.9 -27 112.78 -27 102.22C-27 91.66 -4.24 81.53 36.26 74.06C76.77 66.59 131.71 62.4 189 62.4C246.28 62.4 301.22 66.59 341.73 74.06C382.23 81.53 404.99 91.66 404.99 102.22L405 102.22Z" />
		<path id="path8508" fill-rule="evenodd" class="shp1" d="M12.53 61.02L100.33 34L395.83 34.56L395.27 72.84L311.41 100.98L11.96 101.54L12.53 61.02L12.53 61.02Z" />
		<path id="path7643" fill-rule="evenodd" class="shp2" d="M100.17 34.75L396.43 34.86L310.64 62.75L12.38 62.42L100.17 34.75L100.17 34.75Z" />
		<path id="path7653" fill-rule="evenodd" class="shp3" d="M311.37 101.88L394.57 72.54L396.17 35.17L310.65 62.84L311.37 101.88L311.37 101.88Z" />
		<path id="rect5011" class="shp4" d="M12.69 62.58L310.92 62.58L310.92 101.83L12.69 101.83L12.69 62.58Z" />
		<g id="g7785">
			<path id="rect7663" class="shp5" d="M26.1 73.22L35.97 73.22L35.97 81.89L26.1 81.89L26.1 73.22Z" />
			<path id="rect7745" class="shp5" d="M41.52 73.22L51.4 73.22L51.4 81.89L41.52 81.89L41.52 73.22Z" />
			<path id="rect7747" class="shp5" d="M134.03 73.22L143.91 73.22L143.91 81.89L134.03 81.89L134.03 73.22Z" />
			<path id="rect7749" class="shp5" d="M118.62 73.22L128.49 73.22L128.49 81.89L118.62 81.89L118.62 73.22Z" />
			<path id="rect7751" class="shp5" d="M103.2 73.22L113.08 73.22L113.08 81.89L103.2 81.89L103.2 73.22Z" />
			<path id="rect7753" class="shp5" d="M87.78 73.22L97.65 73.22L97.65 81.89L87.78 81.89L87.78 73.22Z" />
			<path id="rect7755" class="shp5" d="M72.36 73.22L82.24 73.22L82.24 81.89L72.36 81.89L72.36 73.22Z" />
			<path id="rect7757" class="shp5" d="M56.94 73.22L66.81 73.22L66.81 81.89L56.94 81.89L56.94 73.22Z" />
		</g>
		<g id="g7775">
			<path id="rect7759" class="shp5" d="M26.05 84.78L35.93 84.78L35.93 93.45L26.05 93.45L26.05 84.78Z" />
			<path id="rect7761" class="shp5" d="M41.47 84.78L51.34 84.78L51.34 93.45L41.47 93.45L41.47 84.78Z" />
			<path id="rect7763" class="shp5" d="M133.99 84.78L143.86 84.78L143.86 93.45L133.99 93.45L133.99 84.78Z" />
			<path id="rect7765" class="shp5" d="M118.56 84.78L128.44 84.78L128.44 93.45L118.56 93.45L118.56 84.78Z" />
			<path id="rect7767" class="shp5" d="M103.15 84.78L113.02 84.78L113.02 93.45L103.15 93.45L103.15 84.78Z" />
			<path id="rect7769" class="shp5" d="M87.72 84.78L97.6 84.78L97.6 93.45L87.72 93.45L87.72 84.78Z" />
			<path id="rect7771" class="shp5" d="M72.31 84.78L82.18 84.78L82.18 93.45L72.31 93.45L72.31 84.78Z" />
			<path id="rect7773" class="shp5" d="M56.88 84.78L66.76 84.78L66.76 93.45L56.88 93.45L56.88 84.78Z" />
		</g>
		<g id="g7859">
			<path id="rect7795" class="shp6" d="M184.07 74.68L280.4 74.68L280.4 93.23L184.07 93.23L184.07 74.68Z" />
			<g id="g7831">
				<path id="rect7805" class="shp7" d="M192.96 78.38L197.71 78.38L197.71 83.13L192.96 83.13L192.96 78.38Z" />
				<path id="rect7817" class="shp7" d="M203.5 78.38L208.25 78.38L208.25 83.13L203.5 83.13L203.5 78.38Z" />
				<path id="rect7819" class="shp7" d="M214.05 78.38L218.8 78.38L218.8 83.13L214.05 83.13L214.05 78.38Z" />
				<path id="rect7821" class="shp7" d="M224.58 78.38L229.33 78.38L229.33 83.13L224.58 83.13L224.58 78.38Z" />
				<path id="rect7823" class="shp7" d="M235.13 78.38L239.88 78.38L239.88 83.13L235.13 83.13L235.13 78.38Z" />
				<path id="rect7825" class="shp7" d="M245.67 78.38L250.42 78.38L250.42 83.13L245.67 83.13L245.67 78.38Z" />
				<path id="rect7827" class="shp7" d="M256.21 78.38L260.95 78.38L260.95 83.13L256.21 83.13L256.21 78.38Z" />
				<path id="rect7829" class="shp7" d="M266.75 78.38L271.5 78.38L271.5 83.13L266.75 83.13L266.75 78.38Z" />
			</g>
			<g id="g7841">
				<path id="rect7843" class="shp7" d="M192.96 85.13L197.71 85.13L197.71 89.88L192.96 89.88L192.96 85.13Z" />
				<path id="rect7845" class="shp7" d="M203.5 85.13L208.25 85.13L208.25 89.88L203.5 89.88L203.5 85.13Z" />
				<path id="rect7847" class="shp7" d="M214.05 85.13L218.8 85.13L218.8 89.88L214.05 89.88L214.05 85.13Z" />
				<path id="rect7849" class="shp7" d="M224.58 85.13L229.33 85.13L229.33 89.88L224.58 89.88L224.58 85.13Z" />
				<path id="rect7851" class="shp7" d="M235.13 85.13L239.88 85.13L239.88 89.88L235.13 89.88L235.13 85.13Z" />
				<path id="rect7853" class="shp7" d="M245.67 85.13L250.42 85.13L250.42 89.88L245.67 89.88L245.67 85.13Z" />
				<path id="rect7855" class="shp7" d="M256.21 85.13L260.95 85.13L260.95 89.88L256.21 89.88L256.21 85.13Z" />
				<path id="rect7857" class="shp7" d="M266.75 85.13L271.5 85.13L271.5 89.88L266.75 89.88L266.75 85.13Z" />
			</g>
		</g>
	</g>
</svg>